HIERARCHY
ROOT hip
{
  OFFSET 0 0 0
  CHANNELS 6 Xposition Yposition Zposition Zrotation Yrotation Xrotation
  JOINT abdomen
  {
    OFFSET 0 20.6881 -0.73152
    CHANNELS 3 Zrotation Xrotation Yrotation
    JOINT chest
    {
      OFFSET 0 11.7043 -0.48768
      CHANNELS 3 Zrotation Xrotation Yrotation
      JOINT neck
      {
        OFFSET 0 22.1894 -2.19456
        CHANNELS 3 Zrotation Xrotation Yrotation
        JOINT head
        {
          OFFSET -0.24384 7.07133 1.2192
          CHANNELS 3 Zrotation Xrotation Yrotation
          JOINT leftEye
          {
            OFFSET 4.14528 8.04674 8.04672
            CHANNELS 3 Zrotation Xrotation Yrotation
            End Site
            {
              OFFSET 1 0 0
            }
          }
          JOINT rightEye
          {
            OFFSET -3.6576 8.04674 8.04672
            CHANNELS 3 Zrotation Xrotation Yrotation
            End Site
            {
              OFFSET 1 0 0
            }
          }
        }
      }
      JOINT rCollar
      {
        OFFSET -2.68224 19.2634 -4.8768
        CHANNELS 3 Zrotation Xrotation Yrotation
        JOINT rShldr
        {
          OFFSET -8.77824 -1.95073 1.46304
          CHANNELS 3 Zrotation Xrotation Yrotation
          JOINT rForeArm
          {
            OFFSET -28.1742 -1.7115 0.48768
            CHANNELS 3 Zrotation Xrotation Yrotation
            JOINT rHand
            {
              OFFSET -22.5879 0.773209 7.07136
              CHANNELS 3 Zrotation Xrotation Yrotation
              JOINT rThumb1
              {
                OFFSET -1.2192 -0.487915 3.41376
                CHANNELS 3 Zrotation Xrotation Yrotation
                JOINT rThumb2
                {
                  OFFSET -3.37035 -0.52449 3.41376
                  CHANNELS 3 Zrotation Xrotation Yrotation
                  End Site
                  {
                    OFFSET -1.78271 -1.18214 1.43049
                  }
                }
              }
              JOINT rIndex1
              {
                OFFSET -7.75947 0.938293 5.60832
                CHANNELS 3 Zrotation Xrotation Yrotation
                JOINT rIndex2
                {
                  OFFSET -2.54057 -0.884171 1.56538
                  CHANNELS 3 Zrotation Xrotation Yrotation
                  End Site
                  {
                    OFFSET -1.62519 -0.234802 1.16502
                  }
                }
              }
              JOINT rMid1
              {
                OFFSET -8.24714 1.18213 3.41376
                CHANNELS 3 Zrotation Xrotation Yrotation
                JOINT rMid2
                {
                  OFFSET -3.10165 -0.590103 1.0647
                  CHANNELS 3 Zrotation Xrotation Yrotation
                  End Site
                  {
                    OFFSET -2.48547 -0.328903 0.83742
                  }
                }
              }
              JOINT rRing1
              {
                OFFSET -8.82822 0.546677 1.51678
                CHANNELS 3 Zrotation Xrotation Yrotation
                JOINT rRing2
                {
                  OFFSET -2.60934 -0.819778 -0.0198488
                  CHANNELS 3 Zrotation Xrotation Yrotation
                  End Site
                  {
                    OFFSET -2.33842 -0.294052 0.168128
                  }
                }
              }
              JOINT rPinky1
              {
                OFFSET -8.27202 -0.0477905 -0.4584
                CHANNELS 3 Zrotation Xrotation Yrotation
                JOINT rPinky2
                {
                  OFFSET -1.82734 -0.647385 -0.700984
                  CHANNELS 3 Zrotation Xrotation Yrotation
                  End Site
                  {
                    OFFSET -1.69225 -0.51767 -0.607171
                  }
                }
              }
            }
          }
        }
      }
      JOINT lCollar
      {
        OFFSET 2.68224 19.2634 -4.8768
        CHANNELS 3 Zrotation Xrotation Yrotation
        JOINT lShldr
        {
          OFFSET 8.77824 -1.95073 1.46304
          CHANNELS 3 Zrotation Xrotation Yrotation
          JOINT lForeArm
          {
            OFFSET 28.1742 -1.7115 0.48768
            CHANNELS 3 Zrotation Xrotation Yrotation
            JOINT lHand
            {
              OFFSET 22.5879 0.773209 7.07136
              CHANNELS 3 Zrotation Xrotation Yrotation
              JOINT lThumb1
              {
                OFFSET 1.2192 -0.487915 3.41376
                CHANNELS 3 Zrotation Xrotation Yrotation
                JOINT lThumb2
                {
                  OFFSET 3.37035 -0.52449 3.41376
                  CHANNELS 3 Zrotation Xrotation Yrotation
                  End Site
                  {
                    OFFSET 1.78271 -1.18214 1.43049
                  }
                }
              }
              JOINT lIndex1
              {
                OFFSET 7.75947 0.938293 5.60832
                CHANNELS 3 Zrotation Xrotation Yrotation
                JOINT lIndex2
                {
                  OFFSET 2.54057 -0.884171 1.56538
                  CHANNELS 3 Zrotation Xrotation Yrotation
                  End Site
                  {
                    OFFSET 1.62519 -0.234802 1.16502
                  }
                }
              }
              JOINT lMid1
              {
                OFFSET 8.24714 1.18213 3.41376
                CHANNELS 3 Zrotation Xrotation Yrotation
                JOINT lMid2
                {
                  OFFSET 3.10165 -0.590103 1.0647
                  CHANNELS 3 Zrotation Xrotation Yrotation
                  End Site
                  {
                    OFFSET 2.48547 -0.328903 0.83742
                  }
                }
              }
              JOINT lRing1
              {
                OFFSET 8.82822 0.546677 1.51678
                CHANNELS 3 Zrotation Xrotation Yrotation
                JOINT lRing2
                {
                  OFFSET 2.60934 -0.819778 -0.0198488
                  CHANNELS 3 Zrotation Xrotation Yrotation
                  End Site
                  {
                    OFFSET 2.33842 -0.294052 0.168128
                  }
                }
              }
              JOINT lPinky1
              {
                OFFSET 8.27202 -0.0477905 -0.4584
                CHANNELS 3 Zrotation Xrotation Yrotation
                JOINT lPinky2
                {
                  OFFSET 1.82734 -0.647385 -0.700984
                  CHANNELS 3 Zrotation Xrotation Yrotation
                  End Site
                  {
                    OFFSET 1.69225 -0.51767 -0.607171
                  }
                }
              }
            }
          }
        }
      }
    }
  }
  JOINT rButtock
  {
    OFFSET -8.77824 4.35084 1.2192
    CHANNELS 3 Zrotation Xrotation Yrotation
    JOINT rThigh
    {
      OFFSET 0 -1.70687 -2.19456
      CHANNELS 3 Zrotation Xrotation Yrotation
      JOINT rShin
      {
        OFFSET 0 -36.8199 0.73152
        CHANNELS 3 Zrotation Xrotation Yrotation
        JOINT rFoot
        {
          OFFSET 0.73152 -45.1104 -5.12064
          CHANNELS 3 Zrotation Xrotation Yrotation
          End Site
          {
            OFFSET -1.1221 -3.69964 12.103
          }
        }
      }
    }
  }
  JOINT lButtock
  {
    OFFSET 8.77824 4.35084 1.2192
    CHANNELS 3 Zrotation Xrotation Yrotation
    JOINT lThigh
    {
      OFFSET 0 -1.70687 -2.19456
      CHANNELS 3 Zrotation Xrotation Yrotation
      JOINT lShin
      {
        OFFSET 0 -36.8199 0.73152
        CHANNELS 3 Zrotation Xrotation Yrotation
        JOINT lFoot
        {
          OFFSET -0.73152 -45.1104 -5.12064
          CHANNELS 3 Zrotation Xrotation Yrotation
          End Site
          {
            OFFSET 1.1221 -3.69964 12.103
          }
        }
      }
    }
  }
}
MOTION
Frames:	4
Frame Time:	0.03333
-0.03007256891578436 61.844491958618164 0.12911977246403694 -3.6065573692321777 4.390645503997803 5.485296249389648 -2.391706705093384 14.856063842773438 3.6729369163513184 2.748684883117676 -9.789741516113281 1.0364737510681152 -5.079146862030029 15.032134056091309 -3.6319801807403564 8.824886322021484 -23.854829788208008 -5.0398478507995605 -0.05573372542858124 -0.0064695244655013084 0.00011157926928717643 -0.01869228668510914 0.03447800874710083 -0.044061366468667984 -0.019524509087204933 -0.021540567278862 0.023919347673654556 42.68241882324219 36.107948303222656 18.458410263061523 -27.83026885986328 -29.081693649291992 65.74859619140625 -0.20014764368534088 -11.278919219970703 -1.8778865337371826 0.03949851170182228 0.03001972660422325 -0.10366147011518478 -0.02718551643192768 0.03622710332274437 -0.022691644728183746 0.060526710003614426 0.05241626501083374 -0.03272364288568497 7.751811981201172 5.472880840301514 0.4009861648082733 -0.010618580505251884 0.03675312176346779 -0.049292679876089096 2.8837544918060303 0.9953341484069824 0.13560542464256287 -0.0036074486561119556 -0.11203425377607346 0.011856992729008198 10.259268760681152 0.7481598258018494 0.003492505056783557 -0.01382080651819706 -0.041617609560489655 -0.028862250968813896 2.1944899559020996 -0.6777942776679993 -0.17894227802753448 0.006081224884837866 0.03715607896447182 0.045394398272037506 -49.80531692504883 37.92325210571289 -27.942628860473633 27.098217010498047 -26.83894157409668 -62.52047348022461 0.30882373452186584 -14.939634323120117 2.0784072875976562 -0.021259678527712822 -0.023996882140636444 -0.012209894135594368 -0.009076748043298721 -0.011084363795816898 0.02468646690249443 0.026088282465934753 0.007641456089913845 0.0399455800652504 -7.794363975524902 5.447502613067627 -0.3610375225543976 -0.04677436500787735 0.035673800855875015 -0.009770645759999752 -2.9378437995910645 0.9266032576560974 -0.05760224908590317 -0.01675550267100334 0.057769883424043655 -0.004487312398850918 -10.214188575744629 0.7316883206367493 -0.05596541985869408 -0.009137009270489216 0.006081928499042988 0.02720886468887329 -2.2579336166381836 -0.7784421443939209 0.19215048849582672 -0.026999061927199364 0.005473869387060404 0.018773086369037628 -25.541282653808594 -40.6657829284668 -21.393220901489258 -1.5507233142852783 65.31366729736328 2.6040167808532715 -3.6754560470581055 -11.011406898498535 -9.721570014953613 -0.014773616567254066 0.03547622263431549 -0.06542955338954926 30.284244537353516 -40.194156646728516 23.171585083007812 1.6030988693237305 66.27275848388672 -2.7074623107910156 4.242974758148193 -11.117369651794434 13.165664672851562
0.040797796100378036 63.15295696258545 -0.03952775150537491 -3.9910662174224854 3.72318959236145 5.92049503326416 -2.3253073692321777 14.531553268432617 3.5814764499664307 2.8350110054016113 -9.73500919342041 1.096664547920227 -5.374697685241699 15.323314666748047 -3.807344436645508 8.502762794494629 -23.745615005493164 -5.7956342697143555 -0.011135120876133442 0.013843082822859287 -0.021936368197202682 -0.04115017503499985 0.08608724921941757 0.030520668253302574 0.005754943937063217 0.07219192385673523 -0.02062772773206234 45.01647186279297 37.04729080200195 17.676403045654297 -27.07541275024414 -28.151206970214844 65.01615905761719 -0.22758589684963226 -10.091463088989258 -1.5679270029067993 0.005397123284637928 -0.048207491636276245 -0.06255079060792923 -0.0584087073802948 0.055180128663778305 -0.00991817843168974 -0.005062159616500139 -0.0392848365008831 -0.03292575478553772 7.790416717529297 5.415055751800537 0.44393390417099 -0.05524526163935661 0.0006632555741816759 -0.049987584352493286 2.765486478805542 0.9634152054786682 0.18926848471164703 -0.03557739779353142 -0.08287569135427475 -0.05385904759168625 10.493298530578613 0.7454719543457031 0.009019373916089535 -0.0016366769559681416 0.011083626188337803 -0.08503690361976624 2.3378970623016357 -0.6676657199859619 -0.07691356539726257 0.05563437193632126 -0.009271831251680851 -0.09079862385988235 -52.45970153808594 39.393775939941406 -27.661073684692383 26.711631774902344 -26.024703979492188 -61.50542068481445 0.2654479444026947 -12.559837341308594 1.8002958297729492 -0.02574922703206539 0.013603108003735542 -0.013944297097623348 0.05197276920080185 0.07519306987524033 0.07420457154512405 0.0002723239886108786 0.10728997737169266 0.07355199009180069 -7.829721927642822 5.526914596557617 -0.3246515691280365 -0.09718272089958191 0.009735319763422012 0.0015380055410787463 -2.9376542568206787 0.9982638955116272 -0.0460902601480484 0.03521821275353432 0.06664098799228668 0.012305130250751972 -10.313302040100098 0.6523040533065796 -0.06450925767421722 -0.017989668995141983 0.030564161017537117 0.06577695906162262 -2.3219716548919678 -0.7624218463897705 0.1610349863767624 -0.07871061563491821 0.04242105782032013 0.05162912234663963 -24.59432601928711 -40.62537384033203 -19.923566818237305 -1.6382935047149658 65.67676544189453 2.7013096809387207 -3.7137951850891113 -10.692774772644043 -10.099770545959473 0.11101125180721283 -0.09125208109617233 0.030097274109721184 29.788536071777344 -40.30818176269531 22.53908348083496 1.8177094459533691 66.09110260009766 -2.8599135875701904 4.1149091720581055 -10.79904842376709 13.78042984008789
0.19326840993016958 64.42475318908691 0.31487448140978813 2.209120273590088 -32.65309143066406 11.07258129119873 1.1256104707717896 16.98206329345703 3.2131803035736084 3.063539981842041 -11.03982925415039 1.205231785774231 -5.966746807098389 13.960273742675781 -4.407467842102051 8.91622257232666 -30.147911071777344 -7.442042350769043 -0.2841288149356842 -0.16924454271793365 0.26192185282707214 -0.24223747849464417 0.08071150630712509 0.5289243459701538 -0.16087724268436432 0.44096845388412476 0.22222483158111572 10.994794845581055 21.6771297454834 65.99838256835938 -28.607128143310547 -33.1909065246582 71.03990173339844 -2.9189507961273193 -41.93169021606445 -7.331341743469238 -0.31473737955093384 0.16859202086925507 -0.16806314885616302 -0.06146075949072838 0.05451148748397827 0.28052884340286255 -0.0659833773970604 0.30745935440063477 0.45302295684814453 7.491922378540039 5.818129062652588 0.6712815761566162 0.13715825974941254 0.09988907724618912 0.14365506172180176 2.555027961730957 0.9498932361602783 0.011856550350785255 -0.29705747961997986 0.0050421543419361115 0.06845470517873764 9.940802574157715 0.4135420322418213 0.09749966114759445 0.0845038965344429 0.2189793884754181 0.1900622844696045 2.087705373764038 -0.7606961131095886 -0.08416393399238586 0.19335339963436127 -0.24122954905033112 -0.22006815671920776 -19.859195709228516 25.405698776245117 -77.18113708496094 26.058914184570312 -23.160316467285156 -55.54358673095703 0.19871072471141815 8.96112060546875 -1.5420905351638794 0.24258984625339508 -0.36289843916893005 -0.16348545253276825 -0.065894715487957 -0.10114539414644241 -0.2342478334903717 -0.2501174807548523 0.17267437279224396 0.2774662673473358 -7.4819254875183105 5.472919940948486 -0.16240887343883514 0.3010599911212921 -0.1232258528470993 -0.11598870903253555 -2.703639507293701 0.7159489989280701 -0.44480884075164795 -0.2941282093524933 -0.07446040958166122 -0.18957041203975677 -9.878262519836426 1.1438382863998413 0.13956217467784882 0.0008892077021300793 0.2422974556684494 -0.03612637519836426 -2.123798370361328 -0.778050422668457 0.04831109195947647 -0.0200007613748312 -0.3899427652359009 -0.02391231432557106 -5.755878448486328 -42.052589416503906 -12.234119415283203 -2.1500918865203857 71.04045867919922 2.8473451137542725 -8.550576210021973 -10.260648727416992 -24.206451416015625 0.10201107710599899 -0.3681412935256958 -0.38511887192726135 19.859495162963867 -57.7308464050293 21.633934020996094 1.7327748537063599 75.48625946044922 -2.2627408504486084 3.6906967163085938 -2.8633625507354736 13.552801132202148
1.4876552624627948 66.81894063949585 0.5280261859297752 5.095399379730225 -35.026397705078125 13.084592819213867 2.6787917613983154 17.342395782470703 1.575524926185608 3.417912483215332 -11.32934856414795 1.0141286849975586 -8.59631061553955 14.856951713562012 -9.71139907836914 10.827463150024414 -34.26639175415039 -17.554737091064453 -0.3869451880455017 -0.06224473938345909 0.9714517593383789 -0.6861006021499634 0.209218367934227 0.9464802742004395 0.6158199310302734 -0.22079253196716309 -0.10321979969739914 9.342230796813965 2.2360804080963135 88.31007385253906 -29.133562088012695 -34.46488571166992 71.87712860107422 -3.891017198562622 -49.2285041809082 -8.10637092590332 -1.0629640817642212 -0.41593310236930847 -0.28515586256980896 0.31432047486305237 0.41557076573371887 0.32783642411231995 -0.05046546459197998 0.5856050848960876 0.9786613583564758 7.702682018280029 4.941067695617676 0.6378427743911743 -0.48621034622192383 -0.32480210065841675 0.3876623809337616 2.7410569190979004 1.312079906463623 -0.7279073596000671 -0.1533879041671753 -0.9761719703674316 -0.40640968084335327 10.746624946594238 0.35364022850990295 0.4155469834804535 0.38662394881248474 0.4896549582481384 -0.128769189119339 2.593716859817505 -0.9071917533874512 -0.20474791526794434 0.5549359917640686 -0.4728330671787262 0.05910611152648926 -17.515668869018555 20.713172912597656 -95.58271789550781 23.79303741455078 -17.72655487060547 -48.07663345336914 -0.5500234961509705 9.505459785461426 -1.813197374343872 0.21050505340099335 0.2852866053581238 0.00010057003237307072 0.15841548144817352 0.4098559617996216 -0.29502832889556885 -0.9348484873771667 -0.24128852784633636 0.9644955396652222 -7.1980814933776855 5.188788890838623 -0.6772074699401855 0.5349145531654358 -0.027476061135530472 -0.2447354793548584 -4.002476692199707 1.4144865274429321 -0.6580166220664978 -0.47645464539527893 0.26499247550964355 -0.10963913053274155 -10.057637214660645 0.6703230738639832 -0.011334900744259357 -0.5236592888832092 0.06285299360752106 0.061914633959531784 -2.5562212467193604 -0.9596275687217712 -0.05093134194612503 0.8311896324157715 -0.557564377784729 -0.9434675574302673 5.568328857421875 -40.684329986572266 -6.862289905548096 -3.1081576347351074 69.95316314697266 3.3433427810668945 -10.119470596313477 -6.12169075012207 -28.931350708007812 0.7960413694381714 -0.3911457359790802 -0.4667799174785614 4.760852813720703 -61.7977180480957 9.31939697265625 3.155208110809326 77.74950408935547 -2.4594573974609375 2.7170615196228027 0.04439553618431091 15.178921699523926
